<svg width="35" height="35" viewBox="0 0 35 35" fill="none" xmlns="http://www.w3.org/2000/svg">
<rect width="35" height="35" rx="4" fill="url(#paint0_linear_2_2)"/>
<path d="M18.2072 11.457C18.0768 11.1777 17.801 11 17.4982 11C17.1954 11 16.9222 11.1777 16.7892 11.457L15.2062 14.8158L11.671 15.354C11.3756 15.3997 11.1294 15.613 11.0383 15.9049C10.9472 16.1969 11.0211 16.5193 11.2328 16.7351L13.7981 19.3526L13.1924 23.0516C13.1432 23.3562 13.2663 23.666 13.51 23.8462C13.7537 24.0265 14.0762 24.0493 14.3421 23.9046L17.5007 22.1655L20.6593 23.9046C20.9251 24.0493 21.2476 24.029 21.4914 23.8462C21.7351 23.6634 21.8582 23.3562 21.8089 23.0516L21.2009 19.3526L23.7661 16.7351C23.9778 16.5193 24.0542 16.1969 23.9606 15.9049C23.8671 15.613 23.6233 15.3997 23.3279 15.354L19.7902 14.8158L18.2072 11.457Z" fill="#FFDD66"/>
<defs>
<linearGradient id="paint0_linear_2_2" x1="17.5" y1="0" x2="17.5" y2="35" gradientUnits="userSpaceOnUse">
<stop stop-color="#001E45"/>
<stop offset="1" stop-color="#00377E"/>
</linearGradient>
</defs>
</svg>
