<svg width="159" height="35" viewBox="0 0 159 35" fill="none" xmlns="http://www.w3.org/2000/svg">
<path d="M53.0078 22.4189C53.0078 22.0381 52.9492 21.6963 52.832 21.3936C52.7246 21.0811 52.5195 20.7979 52.2168 20.5439C51.9141 20.2803 51.4893 20.0215 50.9424 19.7676C50.3955 19.5137 49.6875 19.25 48.8184 18.9766C47.8516 18.6641 46.9336 18.3125 46.0645 17.9219C45.2051 17.5312 44.4434 17.0771 43.7793 16.5596C43.125 16.0322 42.6074 15.4219 42.2266 14.7285C41.8555 14.0352 41.6699 13.2295 41.6699 12.3115C41.6699 11.4229 41.8652 10.6172 42.2559 9.89453C42.6465 9.16211 43.1934 8.53711 43.8965 8.01953C44.5996 7.49219 45.4297 7.08691 46.3867 6.80371C47.3535 6.52051 48.4131 6.37891 49.5654 6.37891C51.1377 6.37891 52.5098 6.66211 53.6816 7.22852C54.8535 7.79492 55.7617 8.57129 56.4062 9.55762C57.0605 10.5439 57.3877 11.6719 57.3877 12.9414H53.0225C53.0225 12.3164 52.8906 11.7695 52.627 11.3008C52.373 10.8223 51.9824 10.4463 51.4551 10.1729C50.9375 9.89941 50.2832 9.7627 49.4922 9.7627C48.7305 9.7627 48.0957 9.87988 47.5879 10.1143C47.0801 10.3389 46.6992 10.6465 46.4453 11.0371C46.1914 11.418 46.0645 11.8477 46.0645 12.3262C46.0645 12.6875 46.1523 13.0146 46.3281 13.3076C46.5137 13.6006 46.7871 13.874 47.1484 14.1279C47.5098 14.3818 47.9541 14.6211 48.4814 14.8457C49.0088 15.0703 49.6191 15.29 50.3125 15.5049C51.4746 15.8564 52.4951 16.252 53.374 16.6914C54.2627 17.1309 55.0049 17.624 55.6006 18.1709C56.1963 18.7178 56.6455 19.3379 56.9482 20.0312C57.251 20.7246 57.4023 21.5107 57.4023 22.3896C57.4023 23.3174 57.2217 24.1475 56.8604 24.8799C56.499 25.6123 55.9766 26.2324 55.293 26.7402C54.6094 27.248 53.7939 27.6338 52.8467 27.8975C51.8994 28.1611 50.8398 28.293 49.668 28.293C48.6133 28.293 47.5732 28.1562 46.5479 27.8828C45.5225 27.5996 44.5898 27.1748 43.75 26.6084C42.9199 26.042 42.2559 25.3193 41.7578 24.4404C41.2598 23.5615 41.0107 22.5215 41.0107 21.3203H45.4199C45.4199 21.9844 45.5225 22.5459 45.7275 23.0049C45.9326 23.4639 46.2207 23.835 46.5918 24.1182C46.9727 24.4014 47.4219 24.6064 47.9395 24.7334C48.4668 24.8604 49.043 24.9238 49.668 24.9238C50.4297 24.9238 51.0547 24.8164 51.543 24.6016C52.041 24.3867 52.4072 24.0889 52.6416 23.708C52.8857 23.3271 53.0078 22.8975 53.0078 22.4189ZM67.2906 12.1504V15.1387H58.0621V12.1504H67.2906ZM60.3473 8.23926H64.566V23.2246C64.566 23.6836 64.6246 24.0352 64.7418 24.2793C64.8687 24.5234 65.0543 24.6943 65.2984 24.792C65.5426 24.8799 65.8502 24.9238 66.2213 24.9238C66.485 24.9238 66.7193 24.9141 66.9244 24.8945C67.1393 24.8652 67.3199 24.8359 67.4664 24.8066L67.4811 27.9121C67.1197 28.0293 66.7291 28.1221 66.3092 28.1904C65.8893 28.2588 65.4254 28.293 64.9176 28.293C63.9898 28.293 63.1793 28.1416 62.4859 27.8389C61.8023 27.5264 61.275 27.0283 60.9039 26.3447C60.5328 25.6611 60.3473 24.7627 60.3473 23.6494V8.23926ZM77.6477 24.4258V17.3652C77.6477 16.8574 77.5646 16.4229 77.3986 16.0615C77.2326 15.6904 76.9738 15.4023 76.6223 15.1973C76.2805 14.9922 75.8361 14.8896 75.2893 14.8896C74.8205 14.8896 74.4152 14.9727 74.0734 15.1387C73.7316 15.2949 73.468 15.5244 73.2824 15.8271C73.0969 16.1201 73.0041 16.4668 73.0041 16.8672H68.7854C68.7854 16.1934 68.9416 15.5537 69.2541 14.9482C69.5666 14.3428 70.0207 13.8105 70.6164 13.3516C71.2121 12.8828 71.9201 12.5166 72.7404 12.2529C73.5705 11.9893 74.4982 11.8574 75.5236 11.8574C76.7541 11.8574 77.8479 12.0625 78.8049 12.4727C79.7619 12.8828 80.5139 13.498 81.0607 14.3184C81.6174 15.1387 81.8957 16.1641 81.8957 17.3945V24.1768C81.8957 25.0459 81.9494 25.7588 82.0568 26.3154C82.1643 26.8623 82.3205 27.3408 82.5256 27.751V28H78.2629C78.0578 27.5703 77.9016 27.0332 77.7941 26.3887C77.6965 25.7344 77.6477 25.0801 77.6477 24.4258ZM78.2043 18.3467L78.2336 20.7344H75.8752C75.3186 20.7344 74.8352 20.7979 74.425 20.9248C74.0148 21.0518 73.6779 21.2324 73.4143 21.4668C73.1506 21.6914 72.9553 21.9551 72.8283 22.2578C72.7111 22.5605 72.6525 22.8926 72.6525 23.2539C72.6525 23.6152 72.7355 23.9424 72.9016 24.2354C73.0676 24.5186 73.3068 24.7432 73.6193 24.9092C73.9318 25.0654 74.298 25.1436 74.718 25.1436C75.3527 25.1436 75.9045 25.0166 76.3732 24.7627C76.842 24.5088 77.2033 24.1963 77.4572 23.8252C77.7209 23.4541 77.8576 23.1025 77.8674 22.7705L78.9807 24.5576C78.8244 24.958 78.6096 25.373 78.3361 25.8027C78.0725 26.2324 77.7355 26.6377 77.3254 27.0186C76.9152 27.3896 76.4221 27.6973 75.8459 27.9414C75.2697 28.1758 74.5861 28.293 73.7951 28.293C72.7893 28.293 71.8762 28.0928 71.0559 27.6924C70.2453 27.2822 69.6008 26.7207 69.1223 26.0078C68.6535 25.2852 68.4191 24.4648 68.4191 23.5469C68.4191 22.7168 68.5754 21.9795 68.8879 21.335C69.2004 20.6904 69.6594 20.1484 70.2648 19.709C70.8801 19.2598 71.6467 18.9229 72.5646 18.6982C73.4826 18.4639 74.5471 18.3467 75.758 18.3467H78.2043ZM88.7664 15.6074V28H84.5477V12.1504H88.5174L88.7664 15.6074ZM93.5418 12.0479L93.4686 15.959C93.2635 15.9297 93.0145 15.9053 92.7215 15.8857C92.4383 15.8564 92.1795 15.8418 91.9451 15.8418C91.3494 15.8418 90.8318 15.9199 90.3924 16.0762C89.9627 16.2227 89.6014 16.4424 89.3084 16.7354C89.0252 17.0283 88.8104 17.3848 88.6639 17.8047C88.5271 18.2246 88.449 18.7031 88.4295 19.2402L87.5799 18.9766C87.5799 17.9512 87.6824 17.0088 87.8875 16.1494C88.0926 15.2803 88.3904 14.5234 88.7811 13.8789C89.1814 13.2344 89.6697 12.7363 90.2459 12.3848C90.8221 12.0332 91.4813 11.8574 92.2234 11.8574C92.4578 11.8574 92.6971 11.877 92.9412 11.916C93.1854 11.9453 93.3855 11.9893 93.5418 12.0479ZM104.734 6.67188V28H100.354V6.67188H104.734ZM111.296 6.67188V10.1143H93.8939V6.67188H111.296ZM121.199 24.2061V12.1504H125.418V28H121.448L121.199 24.2061ZM121.668 20.9541L122.913 20.9248C122.913 21.9795 122.791 22.9609 122.547 23.8691C122.303 24.7676 121.937 25.5488 121.448 26.2129C120.96 26.8672 120.345 27.3799 119.603 27.751C118.86 28.1123 117.986 28.293 116.98 28.293C116.209 28.293 115.496 28.1855 114.842 27.9707C114.197 27.7461 113.641 27.3994 113.172 26.9307C112.713 26.4521 112.352 25.8418 112.088 25.0996C111.834 24.3477 111.707 23.4443 111.707 22.3896V12.1504H115.926V22.4189C115.926 22.8877 115.979 23.2832 116.087 23.6055C116.204 23.9277 116.365 24.1914 116.57 24.3965C116.775 24.6016 117.015 24.748 117.288 24.8359C117.571 24.9238 117.884 24.9678 118.226 24.9678C119.095 24.9678 119.778 24.792 120.276 24.4404C120.784 24.0889 121.141 23.6104 121.346 23.0049C121.561 22.3896 121.668 21.7061 121.668 20.9541ZM128.041 5.5H132.259V24.3672L131.835 28H128.041V5.5ZM142.294 19.9141V20.2217C142.294 21.4033 142.167 22.4873 141.913 23.4736C141.669 24.46 141.288 25.3145 140.77 26.0371C140.253 26.75 139.608 27.3066 138.837 27.707C138.075 28.0977 137.176 28.293 136.141 28.293C135.174 28.293 134.335 28.0977 133.622 27.707C132.919 27.3164 132.328 26.7646 131.849 26.0518C131.371 25.3389 130.985 24.5039 130.692 23.5469C130.399 22.5898 130.179 21.5449 130.033 20.4121V19.7383C130.179 18.6055 130.399 17.5605 130.692 16.6035C130.985 15.6465 131.371 14.8115 131.849 14.0986C132.328 13.3857 132.919 12.834 133.622 12.4434C134.325 12.0527 135.155 11.8574 136.112 11.8574C137.157 11.8574 138.065 12.0576 138.837 12.458C139.618 12.8486 140.262 13.4053 140.77 14.1279C141.288 14.8408 141.669 15.6904 141.913 16.6768C142.167 17.6533 142.294 18.7324 142.294 19.9141ZM138.075 20.2217V19.9141C138.075 19.2695 138.026 18.6641 137.928 18.0977C137.84 17.5215 137.684 17.0186 137.46 16.5889C137.235 16.1494 136.927 15.8027 136.537 15.5488C136.156 15.2949 135.663 15.168 135.057 15.168C134.481 15.168 133.993 15.2656 133.592 15.4609C133.192 15.6562 132.86 15.9297 132.596 16.2812C132.342 16.6328 132.152 17.0527 132.025 17.541C131.898 18.0195 131.82 18.5469 131.791 19.123V21.042C131.82 21.8135 131.947 22.4971 132.171 23.0928C132.406 23.6787 132.757 24.1426 133.226 24.4844C133.705 24.8164 134.325 24.9824 135.087 24.9824C135.682 24.9824 136.175 24.8652 136.566 24.6309C136.957 24.3965 137.259 24.0645 137.474 23.6348C137.699 23.2051 137.855 22.7021 137.943 22.126C138.031 21.54 138.075 20.9053 138.075 20.2217ZM151.611 28.293C150.38 28.293 149.277 28.0977 148.3 27.707C147.323 27.3066 146.493 26.7549 145.81 26.0518C145.136 25.3486 144.618 24.5332 144.257 23.6055C143.896 22.668 143.715 21.6719 143.715 20.6172V20.0312C143.715 18.8301 143.886 17.7314 144.228 16.7354C144.57 15.7393 145.058 14.875 145.693 14.1426C146.337 13.4102 147.118 12.8486 148.036 12.458C148.954 12.0576 149.989 11.8574 151.142 11.8574C152.265 11.8574 153.261 12.043 154.13 12.4141C154.999 12.7852 155.727 13.3125 156.313 13.9961C156.908 14.6797 157.358 15.5 157.66 16.457C157.963 17.4043 158.114 18.459 158.114 19.6211V21.3789H145.517V18.5664H153.969V18.2441C153.969 17.6582 153.862 17.1357 153.647 16.6768C153.442 16.208 153.129 15.8369 152.709 15.5635C152.289 15.29 151.752 15.1533 151.098 15.1533C150.541 15.1533 150.063 15.2754 149.662 15.5195C149.262 15.7637 148.935 16.1055 148.681 16.5449C148.437 16.9844 148.251 17.502 148.124 18.0977C148.007 18.6836 147.948 19.3281 147.948 20.0312V20.6172C147.948 21.252 148.036 21.8379 148.212 22.375C148.398 22.9121 148.656 23.376 148.988 23.7666C149.33 24.1572 149.74 24.46 150.219 24.6748C150.707 24.8896 151.259 24.9971 151.874 24.9971C152.636 24.9971 153.344 24.8506 153.998 24.5576C154.662 24.2549 155.234 23.8008 155.712 23.1953L157.763 25.4219C157.431 25.9004 156.977 26.3594 156.401 26.7988C155.834 27.2383 155.151 27.5996 154.35 27.8828C153.549 28.1562 152.636 28.293 151.611 28.293Z" fill="white"/>
<rect width="35" height="35" rx="4" fill="url(#paint0_linear_1_70)"/>
<path d="M18.2072 11.457C18.0768 11.1777 17.801 11 17.4982 11C17.1954 11 16.9222 11.1777 16.7892 11.457L15.2062 14.8158L11.671 15.354C11.3756 15.3997 11.1294 15.613 11.0383 15.9049C10.9472 16.1969 11.0211 16.5193 11.2328 16.7351L13.7981 19.3526L13.1924 23.0516C13.1432 23.3562 13.2663 23.666 13.51 23.8462C13.7537 24.0265 14.0762 24.0493 14.3421 23.9046L17.5007 22.1655L20.6593 23.9046C20.9251 24.0493 21.2476 24.029 21.4914 23.8462C21.7351 23.6634 21.8582 23.3562 21.8089 23.0516L21.2009 19.3526L23.7661 16.7351C23.9778 16.5193 24.0542 16.1969 23.9606 15.9049C23.8671 15.613 23.6233 15.3997 23.3279 15.354L19.7902 14.8158L18.2072 11.457Z" fill="#FFDD66"/>
<defs>
<linearGradient id="paint0_linear_1_70" x1="17.5" y1="0" x2="17.5" y2="35" gradientUnits="userSpaceOnUse">
<stop stop-color="#001E45"/>
<stop offset="1" stop-color="#00377E"/>
</linearGradient>
</defs>
</svg>
